STARTFONT 2.1
FONT -Monotype-Arial Narrow-Bold-I-Normal--10-100-75-75-P-44-iso8859-2
SIZE 10 75 75
FONTBOUNDINGBOX 11 13 -2 -3

STARTPROPERTIES 24
FOUNDRY "Monotype"
FAMILY_NAME "Arial Narrow"
WEIGHT_NAME "Bold"
SLANT "I"
SETWIDTH_NAME "Normal"
ADD_STYLE_NAME ""
PIXEL_SIZE 10
POINT_SIZE 100
RESOLUTION_X 75
RESOLUTION_Y 75
SPACING "P"
AVERAGE_WIDTH 44
CHARSET_REGISTRY "iso8859"
CHARSET_ENCODING "2"
FACE_NAME "Arial Narrow Bold Italic ISO Latin2"
_DEC_DEVICE_FONTNAMES "PS=arialnarrow-bit-lat2"
COPYRIGHT "Copyright (c) 1994 Monotype Typography Ltd."
CAP_HEIGHT 9
X_HEIGHT 6
WEIGHT 10
QUAD_WIDTH 5
DEFAULT_CHAR 160
FONT_DESCENT 3
FONT_ASCENT 10
ENDPROPERTIES

CHARS 191

STARTCHAR space
ENCODING 32
SWIDTH 228 0
DWIDTH 2 0
BBX 0 0 0 0
BITMAP
ENDCHAR

STARTCHAR exclam
ENCODING 33
SWIDTH 273 0
DWIDTH 3 0
BBX 2 7 1 0
BITMAP
40
40
40
80
80
00
80
ENDCHAR

STARTCHAR quotedbl
ENCODING 34
SWIDTH 389 0
DWIDTH 4 0
BBX 3 3 1 4
BITMAP
A0
A0
A0
ENDCHAR

STARTCHAR numbersign
ENCODING 35
SWIDTH 456 0
DWIDTH 5 0
BBX 5 8 0 0
BITMAP
28
28
F8
50
50
F8
50
50
ENDCHAR

STARTCHAR dollar
ENCODING 36
SWIDTH 456 0
DWIDTH 5 0
BBX 5 9 0 -1
BITMAP
10
30
58
60
30
30
B0
60
40
ENDCHAR

STARTCHAR percent
ENCODING 37
SWIDTH 729 0
DWIDTH 7 0
BBX 7 8 0 -1
BITMAP
62
A4
A8
D0
16
2A
4A
8C
ENDCHAR

STARTCHAR ampersand
ENCODING 38
SWIDTH 592 0
DWIDTH 6 0
BBX 5 7 1 0
BITMAP
30
50
60
60
A8
90
E8
ENDCHAR

STARTCHAR quoteright
ENCODING 39
SWIDTH 228 0
DWIDTH 2 0
BBX 2 3 0 4
BITMAP
C0
40
80
ENDCHAR

STARTCHAR parenleft
ENCODING 40
SWIDTH 273 0
DWIDTH 3 0
BBX 3 9 0 -2
BITMAP
20
40
40
80
80
80
80
80
40
ENDCHAR

STARTCHAR parenright
ENCODING 41
SWIDTH 273 0
DWIDTH 3 0
BBX 3 9 0 -2
BITMAP
40
20
20
20
20
20
40
40
80
ENDCHAR

STARTCHAR asterisk
ENCODING 42
SWIDTH 319 0
DWIDTH 3 0
BBX 3 4 0 3
BITMAP
40
E0
40
A0
ENDCHAR

STARTCHAR plus
ENCODING 43
SWIDTH 479 0
DWIDTH 5 0
BBX 5 5 0 1
BITMAP
20
20
F8
20
20
ENDCHAR

STARTCHAR comma
ENCODING 44
SWIDTH 228 0
DWIDTH 2 0
BBX 2 3 0 -2
BITMAP
C0
40
80
ENDCHAR

STARTCHAR minus
ENCODING 45
SWIDTH 479 0
DWIDTH 5 0
BBX 4 1 1 3
BITMAP
F0
ENDCHAR

STARTCHAR period
ENCODING 46
SWIDTH 228 0
DWIDTH 2 0
BBX 1 1 1 0
BITMAP
80
ENDCHAR

STARTCHAR slash
ENCODING 47
SWIDTH 228 0
DWIDTH 2 0
BBX 3 8 0 -1
BITMAP
20
20
20
40
40
80
80
80
ENDCHAR

STARTCHAR zero
ENCODING 48
SWIDTH 456 0
DWIDTH 5 0
BBX 4 7 1 0
BITMAP
30
50
50
50
A0
A0
C0
ENDCHAR

STARTCHAR one
ENCODING 49
SWIDTH 456 0
DWIDTH 5 0
BBX 2 7 2 0
BITMAP
40
C0
40
C0
C0
80
80
ENDCHAR

STARTCHAR two
ENCODING 50
SWIDTH 456 0
DWIDTH 5 0
BBX 4 7 1 0
BITMAP
60
B0
B0
20
40
80
E0
ENDCHAR

STARTCHAR three
ENCODING 51
SWIDTH 456 0
DWIDTH 5 0
BBX 5 7 1 0
BITMAP
30
58
10
20
10
B0
60
ENDCHAR

STARTCHAR four
ENCODING 52
SWIDTH 456 0
DWIDTH 5 0
BBX 4 7 1 0
BITMAP
20
60
60
A0
F0
40
40
ENDCHAR

STARTCHAR five
ENCODING 53
SWIDTH 456 0
DWIDTH 5 0
BBX 5 7 0 0
BITMAP
38
20
70
58
18
90
60
ENDCHAR

STARTCHAR six
ENCODING 54
SWIDTH 456 0
DWIDTH 5 0
BBX 4 7 1 0
BITMAP
30
40
A0
D0
B0
B0
60
ENDCHAR

STARTCHAR seven
ENCODING 55
SWIDTH 456 0
DWIDTH 5 0
BBX 4 7 1 0
BITMAP
F0
F0
20
40
40
80
80
ENDCHAR

STARTCHAR eight
ENCODING 56
SWIDTH 456 0
DWIDTH 5 0
BBX 4 7 1 0
BITMAP
20
50
50
60
B0
B0
60
ENDCHAR

STARTCHAR nine
ENCODING 57
SWIDTH 456 0
DWIDTH 5 0
BBX 4 7 1 0
BITMAP
20
50
B0
B0
50
20
C0
ENDCHAR

STARTCHAR colon
ENCODING 58
SWIDTH 273 0
DWIDTH 3 0
BBX 2 5 1 0
BITMAP
40
00
00
00
80
ENDCHAR

STARTCHAR semicolon
ENCODING 59
SWIDTH 273 0
DWIDTH 3 0
BBX 3 7 0 -2
BITMAP
20
00
00
00
C0
40
80
ENDCHAR

STARTCHAR less
ENCODING 60
SWIDTH 479 0
DWIDTH 5 0
BBX 4 5 1 1
BITMAP
10
60
C0
60
10
ENDCHAR

STARTCHAR equal
ENCODING 61
SWIDTH 479 0
DWIDTH 5 0
BBX 4 3 1 2
BITMAP
F0
00
F0
ENDCHAR

STARTCHAR greater
ENCODING 62
SWIDTH 479 0
DWIDTH 5 0
BBX 4 5 1 1
BITMAP
80
60
30
60
80
ENDCHAR

STARTCHAR question
ENCODING 63
SWIDTH 501 0
DWIDTH 5 0
BBX 4 7 1 0
BITMAP
60
90
10
20
40
00
80
ENDCHAR

STARTCHAR at
ENCODING 64
SWIDTH 800 0
DWIDTH 8 0
BBX 8 9 0 -2
BITMAP
3C
42
9D
A5
A5
AD
B6
41
3E
ENDCHAR

STARTCHAR A
ENCODING 65
SWIDTH 592 0
DWIDTH 6 0
BBX 6 7 0 0
BITMAP
0C
14
14
2C
7C
4C
8C
ENDCHAR

STARTCHAR B
ENCODING 66
SWIDTH 592 0
DWIDTH 6 0
BBX 5 7 1 0
BITMAP
70
58
58
F0
98
98
F0
ENDCHAR

STARTCHAR C
ENCODING 67
SWIDTH 592 0
DWIDTH 6 0
BBX 5 7 1 0
BITMAP
38
58
40
80
B0
B0
60
ENDCHAR

STARTCHAR D
ENCODING 68
SWIDTH 592 0
DWIDTH 6 0
BBX 5 7 1 0
BITMAP
70
58
58
98
B0
B0
E0
ENDCHAR

STARTCHAR E
ENCODING 69
SWIDTH 547 0
DWIDTH 5 0
BBX 5 7 1 0
BITMAP
78
60
60
F0
C0
C0
F0
ENDCHAR

STARTCHAR F
ENCODING 70
SWIDTH 501 0
DWIDTH 5 0
BBX 5 7 1 0
BITMAP
78
60
60
F0
C0
C0
C0
ENDCHAR

STARTCHAR G
ENCODING 71
SWIDTH 638 0
DWIDTH 6 0
BBX 5 7 1 0
BITMAP
38
58
40
B8
98
B0
70
ENDCHAR

STARTCHAR H
ENCODING 72
SWIDTH 592 0
DWIDTH 6 0
BBX 5 7 1 0
BITMAP
58
58
58
78
B0
B0
B0
ENDCHAR

STARTCHAR I
ENCODING 73
SWIDTH 228 0
DWIDTH 3 0
BBX 2 7 1 0
BITMAP
40
40
40
C0
C0
80
80
ENDCHAR

STARTCHAR J
ENCODING 74
SWIDTH 456 0
DWIDTH 5 0
BBX 4 7 1 0
BITMAP
10
10
30
30
20
A0
C0
ENDCHAR

STARTCHAR K
ENCODING 75
SWIDTH 592 0
DWIDTH 6 0
BBX 5 7 1 0
BITMAP
48
58
70
E0
B0
90
98
ENDCHAR

STARTCHAR L
ENCODING 76
SWIDTH 501 0
DWIDTH 5 0
BBX 4 7 1 0
BITMAP
40
40
C0
C0
80
80
F0
ENDCHAR

STARTCHAR M
ENCODING 77
SWIDTH 683 0
DWIDTH 7 0
BBX 6 7 1 0
BITMAP
44
6C
54
94
A8
A8
A8
ENDCHAR

STARTCHAR N
ENCODING 78
SWIDTH 592 0
DWIDTH 6 0
BBX 5 7 1 0
BITMAP
48
68
68
B0
B0
90
90
ENDCHAR

STARTCHAR O
ENCODING 79
SWIDTH 638 0
DWIDTH 6 0
BBX 5 7 1 0
BITMAP
30
58
58
98
B0
B0
60
ENDCHAR

STARTCHAR P
ENCODING 80
SWIDTH 547 0
DWIDTH 5 0
BBX 5 7 0 0
BITMAP
70
58
58
70
80
80
80
ENDCHAR

STARTCHAR Q
ENCODING 81
SWIDTH 638 0
DWIDTH 6 0
BBX 5 8 1 -1
BITMAP
30
58
58
98
F0
B0
70
08
ENDCHAR

STARTCHAR R
ENCODING 82
SWIDTH 592 0
DWIDTH 6 0
BBX 5 7 1 0
BITMAP
70
58
58
70
A0
B0
B0
ENDCHAR

STARTCHAR S
ENCODING 83
SWIDTH 547 0
DWIDTH 5 0
BBX 5 7 0 0
BITMAP
30
68
60
30
30
B0
60
ENDCHAR

STARTCHAR T
ENCODING 84
SWIDTH 501 0
DWIDTH 5 0
BBX 5 7 1 0
BITMAP
F8
20
20
60
60
40
40
ENDCHAR

STARTCHAR U
ENCODING 85
SWIDTH 592 0
DWIDTH 6 0
BBX 5 7 1 0
BITMAP
48
48
D8
D8
90
90
60
ENDCHAR

STARTCHAR V
ENCODING 86
SWIDTH 547 0
DWIDTH 5 0
BBX 5 7 1 0
BITMAP
98
90
B0
A0
E0
C0
C0
ENDCHAR

STARTCHAR W
ENCODING 87
SWIDTH 774 0
DWIDTH 8 0
BBX 7 7 1 0
BITMAP
92
92
B6
B4
FC
D8
D8
ENDCHAR

STARTCHAR X
ENCODING 88
SWIDTH 547 0
DWIDTH 5 0
BBX 5 7 0 0
BITMAP
48
68
70
30
70
98
98
ENDCHAR

STARTCHAR Y
ENCODING 89
SWIDTH 547 0
DWIDTH 5 0
BBX 5 7 1 0
BITMAP
98
90
B0
60
40
C0
C0
ENDCHAR

STARTCHAR Z
ENCODING 90
SWIDTH 501 0
DWIDTH 6 0
BBX 6 7 1 0
BITMAP
7C
08
18
30
60
C0
F0
ENDCHAR

STARTCHAR bracketleft
ENCODING 91
SWIDTH 273 0
DWIDTH 3 0
BBX 3 9 0 -2
BITMAP
60
40
40
40
C0
80
80
80
C0
ENDCHAR

STARTCHAR backslash
ENCODING 92
SWIDTH 228 0
DWIDTH 2 0
BBX 3 8 0 -1
BITMAP
80
80
80
40
40
20
20
20
ENDCHAR

STARTCHAR bracketright
ENCODING 93
SWIDTH 273 0
DWIDTH 3 0
BBX 3 9 0 -2
BITMAP
60
20
20
20
60
40
40
40
C0
ENDCHAR

STARTCHAR asciicircum
ENCODING 94
SWIDTH 479 0
DWIDTH 5 0
BBX 4 4 1 3
BITMAP
20
20
50
90
ENDCHAR

STARTCHAR underscore
ENCODING 95
SWIDTH 456 0
DWIDTH 5 0
BBX 5 1 0 -2
BITMAP
F8
ENDCHAR

STARTCHAR quoteleft
ENCODING 96
SWIDTH 228 0
DWIDTH 2 0
BBX 2 3 0 4
BITMAP
40
80
C0
ENDCHAR

STARTCHAR a
ENCODING 97
SWIDTH 456 0
DWIDTH 5 0
BBX 5 5 0 0
BITMAP
38
18
70
B0
D0
ENDCHAR

STARTCHAR b
ENCODING 98
SWIDTH 501 0
DWIDTH 5 0
BBX 4 7 1 0
BITMAP
40
40
70
90
B0
B0
E0
ENDCHAR

STARTCHAR c
ENCODING 99
SWIDTH 456 0
DWIDTH 5 0
BBX 4 5 1 0
BITMAP
30
50
C0
D0
60
ENDCHAR

STARTCHAR d
ENCODING 100
SWIDTH 501 0
DWIDTH 5 0
BBX 5 7 1 0
BITMAP
08
08
68
D0
D0
B0
D0
ENDCHAR

STARTCHAR e
ENCODING 101
SWIDTH 456 0
DWIDTH 5 0
BBX 4 5 1 0
BITMAP
30
50
E0
D0
60
ENDCHAR

STARTCHAR f
ENCODING 102
SWIDTH 273 0
DWIDTH 3 0
BBX 3 7 1 0
BITMAP
20
40
E0
40
C0
80
80
ENDCHAR

STARTCHAR g
ENCODING 103
SWIDTH 501 0
DWIDTH 5 0
BBX 5 7 1 -2
BITMAP
38
70
D0
90
E0
20
C0
ENDCHAR

STARTCHAR h
ENCODING 104
SWIDTH 501 0
DWIDTH 5 0
BBX 4 7 1 0
BITMAP
40
40
70
D0
B0
B0
A0
ENDCHAR

STARTCHAR i
ENCODING 105
SWIDTH 228 0
DWIDTH 2 0
BBX 2 7 0 0
BITMAP
40
00
40
40
C0
80
80
ENDCHAR

STARTCHAR j
ENCODING 106
SWIDTH 228 0
DWIDTH 2 0
BBX 3 9 -1 -2
BITMAP
20
00
20
20
60
60
40
40
80
ENDCHAR

STARTCHAR k
ENCODING 107
SWIDTH 456 0
DWIDTH 5 0
BBX 4 7 1 0
BITMAP
40
40
50
F0
A0
B0
90
ENDCHAR

STARTCHAR l
ENCODING 108
SWIDTH 228 0
DWIDTH 3 0
BBX 2 7 1 0
BITMAP
40
40
C0
C0
80
80
80
ENDCHAR

STARTCHAR m
ENCODING 109
SWIDTH 729 0
DWIDTH 7 0
BBX 6 5 1 0
BITMAP
68
54
54
A8
A8
ENDCHAR

STARTCHAR n
ENCODING 110
SWIDTH 501 0
DWIDTH 5 0
BBX 5 5 0 0
BITMAP
58
68
58
98
90
ENDCHAR

STARTCHAR o
ENCODING 111
SWIDTH 501 0
DWIDTH 5 0
BBX 4 5 1 0
BITMAP
30
70
B0
A0
C0
ENDCHAR

STARTCHAR p
ENCODING 112
SWIDTH 501 0
DWIDTH 5 0
BBX 5 7 0 -2
BITMAP
58
68
58
58
B0
80
80
ENDCHAR

STARTCHAR q
ENCODING 113
SWIDTH 501 0
DWIDTH 5 0
BBX 5 7 1 -2
BITMAP
38
70
D0
90
60
20
20
ENDCHAR

STARTCHAR r
ENCODING 114
SWIDTH 319 0
DWIDTH 4 0
BBX 4 5 1 0
BITMAP
50
60
C0
80
80
ENDCHAR

STARTCHAR s
ENCODING 115
SWIDTH 456 0
DWIDTH 4 0
BBX 5 5 0 0
BITMAP
38
60
30
30
E0
ENDCHAR

STARTCHAR t
ENCODING 116
SWIDTH 273 0
DWIDTH 3 0
BBX 3 7 1 0
BITMAP
40
40
E0
40
C0
80
C0
ENDCHAR

STARTCHAR u
ENCODING 117
SWIDTH 501 0
DWIDTH 5 0
BBX 5 5 0 0
BITMAP
48
48
D8
B0
D0
ENDCHAR

STARTCHAR v
ENCODING 118
SWIDTH 456 0
DWIDTH 4 0
BBX 4 5 1 0
BITMAP
90
B0
A0
E0
C0
ENDCHAR

STARTCHAR w
ENCODING 119
SWIDTH 638 0
DWIDTH 6 0
BBX 5 5 1 0
BITMAP
A8
A8
A8
F0
A0
ENDCHAR

STARTCHAR x
ENCODING 120
SWIDTH 456 0
DWIDTH 5 0
BBX 5 5 0 0
BITMAP
68
70
20
70
B0
ENDCHAR

STARTCHAR y
ENCODING 121
SWIDTH 456 0
DWIDTH 5 0
BBX 5 7 0 -2
BITMAP
48
58
50
30
20
60
C0
ENDCHAR

STARTCHAR z
ENCODING 122
SWIDTH 410 0
DWIDTH 4 0
BBX 4 5 0 0
BITMAP
70
30
60
C0
E0
ENDCHAR

STARTCHAR braceleft
ENCODING 123
SWIDTH 319 0
DWIDTH 3 0
BBX 3 9 0 -2
BITMAP
20
40
40
40
80
40
80
80
40
ENDCHAR

STARTCHAR bar
ENCODING 124
SWIDTH 230 0
DWIDTH 2 0
BBX 1 10 1 -3
BITMAP
80
80
80
80
80
80
80
80
80
80
ENDCHAR

STARTCHAR braceright
ENCODING 125
SWIDTH 319 0
DWIDTH 3 0
BBX 3 9 0 -2
BITMAP
40
20
20
40
20
40
40
40
80
ENDCHAR

STARTCHAR asciitilde
ENCODING 126
SWIDTH 479 0
DWIDTH 5 0
BBX 4 2 1 3
BITMAP
D0
B0
ENDCHAR

STARTCHAR space
ENCODING 160
SWIDTH 228 0
DWIDTH 3 0
BBX 0 0 0 0
BITMAP
ENDCHAR

STARTCHAR Aogonek
ENCODING 161
SWIDTH 592 0
DWIDTH 6 0
BBX 7 9 0 -2
BITMAP
0C
14
14
2C
7C
4C
8C
04
06
ENDCHAR

STARTCHAR breve
ENCODING 162
SWIDTH 273 0
DWIDTH 3 0
BBX 3 2 0 6
BITMAP
A0
40
ENDCHAR

STARTCHAR Lslash
ENCODING 163
SWIDTH 501 0
DWIDTH 5 0
BBX 5 7 0 0
BITMAP
20
20
60
70
C0
40
78
ENDCHAR

STARTCHAR currency
ENCODING 164
SWIDTH 456 0
DWIDTH 5 0
BBX 5 5 0 2
BITMAP
88
70
50
70
88
ENDCHAR

STARTCHAR Lcaron
ENCODING 165
SWIDTH 501 0
DWIDTH 5 0
BBX 4 7 1 0
BITMAP
50
50
E0
C0
80
80
F0
ENDCHAR

STARTCHAR Sacute
ENCODING 166
SWIDTH 547 0
DWIDTH 5 0
BBX 5 10 0 0
BITMAP
08
10
00
30
68
60
30
30
B0
60
ENDCHAR

STARTCHAR section
ENCODING 167
SWIDTH 456 0
DWIDTH 5 0
BBX 5 9 0 -2
BITMAP
18
20
20
50
50
50
20
A0
40
ENDCHAR

STARTCHAR dieresis
ENCODING 168
SWIDTH 273 0
DWIDTH 3 0
BBX 3 1 0 6
BITMAP
A0
ENDCHAR

STARTCHAR Scaron
ENCODING 169
SWIDTH 547 0
DWIDTH 5 0
BBX 5 10 0 0
BITMAP
28
10
00
30
68
60
30
30
B0
60
ENDCHAR

STARTCHAR Scommaaccent
ENCODING 170
SWIDTH 547 0
DWIDTH 5 0
BBX 5 10 0 -3
BITMAP
30
68
60
30
30
B0
60
00
40
80
ENDCHAR

STARTCHAR Tcaron
ENCODING 171
SWIDTH 501 0
DWIDTH 5 0
BBX 5 10 1 0
BITMAP
28
10
00
F8
20
20
60
60
40
40
ENDCHAR

STARTCHAR Zacute
ENCODING 172
SWIDTH 501 0
DWIDTH 6 0
BBX 6 10 1 0
BITMAP
08
10
00
7C
08
18
30
60
C0
F0
ENDCHAR

STARTCHAR hyphen
ENCODING 173
SWIDTH 273 0
DWIDTH 3 0
BBX 3 1 0 4
BITMAP
E0
ENDCHAR

STARTCHAR Zcaron
ENCODING 174
SWIDTH 501 0
DWIDTH 6 0
BBX 6 10 1 0
BITMAP
14
08
00
7C
08
18
30
60
C0
F0
ENDCHAR

STARTCHAR Zdotaccent
ENCODING 175
SWIDTH 501 0
DWIDTH 6 0
BBX 6 10 1 0
BITMAP
10
10
00
7C
08
18
30
60
C0
F0
ENDCHAR

STARTCHAR degree
ENCODING 176
SWIDTH 328 0
DWIDTH 3 0
BBX 3 3 0 4
BITMAP
40
A0
40
ENDCHAR

STARTCHAR aogonek
ENCODING 177
SWIDTH 456 0
DWIDTH 5 0
BBX 5 7 0 -2
BITMAP
38
18
70
B0
D0
10
18
ENDCHAR

STARTCHAR ogonek
ENCODING 178
SWIDTH 273 0
DWIDTH 3 0
BBX 2 2 1 -2
BITMAP
80
C0
ENDCHAR

STARTCHAR lslash
ENCODING 179
SWIDTH 228 0
DWIDTH 3 0
BBX 4 7 0 0
BITMAP
20
20
60
70
C0
40
40
ENDCHAR

STARTCHAR acute
ENCODING 180
SWIDTH 273 0
DWIDTH 3 0
BBX 2 2 1 6
BITMAP
40
80
ENDCHAR

STARTCHAR lcaron
ENCODING 181
SWIDTH 325 0
DWIDTH 3 0
BBX 4 7 1 0
BITMAP
50
50
E0
C0
80
80
80
ENDCHAR

STARTCHAR sacute
ENCODING 182
SWIDTH 456 0
DWIDTH 4 0
BBX 5 8 0 0
BITMAP
08
10
00
38
60
30
30
E0
ENDCHAR

STARTCHAR caron
ENCODING 183
SWIDTH 273 0
DWIDTH 3 0
BBX 3 2 0 6
BITMAP
A0
40
ENDCHAR

STARTCHAR commaaccent
ENCODING 184
SWIDTH 333 0
DWIDTH 3 0
BBX 2 2 0 -3
BITMAP
40
80
ENDCHAR

STARTCHAR scaron
ENCODING 185
SWIDTH 456 0
DWIDTH 4 0
BBX 5 8 0 0
BITMAP
28
10
00
38
60
30
30
E0
ENDCHAR

STARTCHAR scommaaccent
ENCODING 186
SWIDTH 456 0
DWIDTH 4 0
BBX 5 8 0 -3
BITMAP
38
60
30
30
E0
00
40
80
ENDCHAR

STARTCHAR tcaron
ENCODING 187
SWIDTH 393 0
DWIDTH 4 0
BBX 4 7 1 0
BITMAP
50
50
E0
40
C0
80
C0
ENDCHAR

STARTCHAR zacute
ENCODING 188
SWIDTH 410 0
DWIDTH 4 0
BBX 4 8 0 0
BITMAP
10
20
00
70
30
60
C0
E0
ENDCHAR

STARTCHAR hungarumlaut
ENCODING 189
SWIDTH 273 0
DWIDTH 3 0
BBX 4 2 0 5
BITMAP
50
A0
ENDCHAR

STARTCHAR zcaron
ENCODING 190
SWIDTH 410 0
DWIDTH 4 0
BBX 4 8 0 0
BITMAP
50
20
00
70
30
60
C0
E0
ENDCHAR

STARTCHAR zdotaccent
ENCODING 191
SWIDTH 410 0
DWIDTH 4 0
BBX 4 8 0 0
BITMAP
20
20
00
70
30
60
C0
E0
ENDCHAR

STARTCHAR Racute
ENCODING 192
SWIDTH 592 0
DWIDTH 6 0
BBX 5 10 1 0
BITMAP
08
10
00
70
58
58
70
A0
B0
B0
ENDCHAR

STARTCHAR Aacute
ENCODING 193
SWIDTH 592 0
DWIDTH 6 0
BBX 7 10 0 0
BITMAP
02
04
00
0C
14
14
2C
7C
4C
8C
ENDCHAR

STARTCHAR Acircumflex
ENCODING 194
SWIDTH 592 0
DWIDTH 6 0
BBX 7 10 0 0
BITMAP
0C
12
12
0C
14
14
2C
7C
4C
8C
ENDCHAR

STARTCHAR Abreve
ENCODING 195
SWIDTH 592 0
DWIDTH 6 0
BBX 8 10 0 0
BITMAP
11
0E
00
0C
14
14
2C
7C
4C
8C
ENDCHAR

STARTCHAR Adieresis
ENCODING 196
SWIDTH 592 0
DWIDTH 6 0
BBX 7 9 0 0
BITMAP
12
00
0C
14
14
2C
7C
4C
8C
ENDCHAR

STARTCHAR Lacute
ENCODING 197
SWIDTH 501 0
DWIDTH 5 0
BBX 4 10 1 0
BITMAP
10
20
00
40
40
C0
C0
80
80
F0
ENDCHAR

STARTCHAR Cacute
ENCODING 198
SWIDTH 592 0
DWIDTH 6 0
BBX 5 10 1 0
BITMAP
08
10
00
38
58
40
80
B0
B0
60
ENDCHAR

STARTCHAR Ccedilla
ENCODING 199
SWIDTH 592 0
DWIDTH 6 0
BBX 5 10 1 -3
BITMAP
38
58
40
80
B0
B0
60
40
60
C0
ENDCHAR

STARTCHAR Ccaron
ENCODING 200
SWIDTH 592 0
DWIDTH 6 0
BBX 5 10 1 0
BITMAP
28
10
00
38
58
40
80
B0
B0
60
ENDCHAR

STARTCHAR Eacute
ENCODING 201
SWIDTH 547 0
DWIDTH 5 0
BBX 5 10 1 0
BITMAP
10
20
00
78
60
60
F0
C0
C0
F0
ENDCHAR

STARTCHAR Eogonek
ENCODING 202
SWIDTH 547 0
DWIDTH 5 0
BBX 5 9 1 -2
BITMAP
78
60
60
F0
C0
C0
F0
20
30
ENDCHAR

STARTCHAR Edieresis
ENCODING 203
SWIDTH 547 0
DWIDTH 5 0
BBX 5 10 1 0
BITMAP
28
28
00
78
60
60
F0
C0
C0
F0
ENDCHAR

STARTCHAR Ecaron
ENCODING 204
SWIDTH 547 0
DWIDTH 5 0
BBX 5 10 1 0
BITMAP
28
10
00
78
60
60
F0
C0
C0
F0
ENDCHAR

STARTCHAR Iacute
ENCODING 205
SWIDTH 228 0
DWIDTH 3 0
BBX 3 10 1 0
BITMAP
20
40
00
40
40
C0
C0
80
80
80
ENDCHAR

STARTCHAR Icircumflex
ENCODING 206
SWIDTH 228 0
DWIDTH 3 0
BBX 3 10 1 0
BITMAP
40
A0
00
40
40
C0
C0
80
80
80
ENDCHAR

STARTCHAR Dcaron
ENCODING 207
SWIDTH 592 0
DWIDTH 6 0
BBX 5 10 1 0
BITMAP
28
10
00
70
58
58
98
B0
B0
E0
ENDCHAR

STARTCHAR Dcroat
ENCODING 208
SWIDTH 592 0
DWIDTH 6 0
BBX 6 7 0 0
BITMAP
38
2C
2C
FC
58
58
70
ENDCHAR

STARTCHAR Nacute
ENCODING 209
SWIDTH 592 0
DWIDTH 6 0
BBX 5 10 1 0
BITMAP
08
10
00
48
68
68
B0
B0
90
90
ENDCHAR

STARTCHAR Ncaron
ENCODING 210
SWIDTH 592 0
DWIDTH 6 0
BBX 5 10 1 0
BITMAP
28
10
00
48
68
68
B0
B0
90
90
ENDCHAR

STARTCHAR Oacute
ENCODING 211
SWIDTH 638 0
DWIDTH 6 0
BBX 5 10 1 0
BITMAP
08
10
00
30
58
58
98
B0
B0
60
ENDCHAR

STARTCHAR Ocircumflex
ENCODING 212
SWIDTH 638 0
DWIDTH 6 0
BBX 5 10 1 0
BITMAP
10
28
00
30
58
58
98
B0
B0
60
ENDCHAR

STARTCHAR Ohungarumlaut
ENCODING 213
SWIDTH 638 0
DWIDTH 6 0
BBX 6 10 1 0
BITMAP
14
28
00
30
58
58
98
B0
B0
60
ENDCHAR

STARTCHAR Odieresis
ENCODING 214
SWIDTH 638 0
DWIDTH 6 0
BBX 5 10 1 0
BITMAP
28
28
00
30
58
58
98
B0
B0
60
ENDCHAR

STARTCHAR multiply
ENCODING 215
SWIDTH 479 0
DWIDTH 5 0
BBX 5 5 0 2
BITMAP
D8
70
20
70
D8
ENDCHAR

STARTCHAR Rcaron
ENCODING 216
SWIDTH 592 0
DWIDTH 6 0
BBX 5 10 1 0
BITMAP
28
10
00
70
58
58
70
A0
B0
B0
ENDCHAR

STARTCHAR Uring
ENCODING 217
SWIDTH 592 0
DWIDTH 6 0
BBX 6 10 1 0
BITMAP
18
24
18
48
48
D8
D8
90
90
60
ENDCHAR

STARTCHAR Uacute
ENCODING 218
SWIDTH 592 0
DWIDTH 6 0
BBX 5 10 1 0
BITMAP
08
10
00
48
48
D8
D8
90
90
60
ENDCHAR

STARTCHAR Uhungarumlaut
ENCODING 219
SWIDTH 592 0
DWIDTH 6 0
BBX 6 10 1 0
BITMAP
14
28
00
48
48
D8
D8
90
90
60
ENDCHAR

STARTCHAR Udieresis
ENCODING 220
SWIDTH 592 0
DWIDTH 6 0
BBX 5 10 1 0
BITMAP
28
28
00
48
48
D8
D8
90
90
60
ENDCHAR

STARTCHAR Yacute
ENCODING 221
SWIDTH 547 0
DWIDTH 5 0
BBX 5 10 1 0
BITMAP
10
20
00
98
90
B0
60
40
C0
C0
ENDCHAR

STARTCHAR Tcommaaccent
ENCODING 222
SWIDTH 501 0
DWIDTH 5 0
BBX 5 10 0 -3
BITMAP
F8
20
20
60
60
40
40
00
40
80
ENDCHAR

STARTCHAR germandbls
ENCODING 223
SWIDTH 501 0
DWIDTH 5 0
BBX 4 7 1 0
BITMAP
60
50
50
A0
90
90
A0
ENDCHAR

STARTCHAR racute
ENCODING 224
SWIDTH 319 0
DWIDTH 4 0
BBX 4 8 1 0
BITMAP
10
20
00
50
60
C0
80
80
ENDCHAR

STARTCHAR aacute
ENCODING 225
SWIDTH 456 0
DWIDTH 5 0
BBX 5 8 0 0
BITMAP
08
10
00
38
18
70
B0
D0
ENDCHAR

STARTCHAR acircumflex
ENCODING 226
SWIDTH 456 0
DWIDTH 5 0
BBX 5 8 0 0
BITMAP
10
28
00
38
18
70
B0
D0
ENDCHAR

STARTCHAR abreve
ENCODING 227
SWIDTH 456 0
DWIDTH 5 0
BBX 6 8 0 0
BITMAP
24
18
00
38
18
70
B0
D0
ENDCHAR

STARTCHAR adieresis
ENCODING 228
SWIDTH 456 0
DWIDTH 5 0
BBX 5 8 0 0
BITMAP
28
28
00
38
18
70
B0
D0
ENDCHAR

STARTCHAR lacute
ENCODING 229
SWIDTH 228 0
DWIDTH 3 0
BBX 3 10 1 0
BITMAP
20
40
00
40
40
C0
C0
80
80
80
ENDCHAR

STARTCHAR cacute
ENCODING 230
SWIDTH 456 0
DWIDTH 5 0
BBX 5 8 1 0
BITMAP
08
10
00
30
50
C0
D0
60
ENDCHAR

STARTCHAR ccedilla
ENCODING 231
SWIDTH 456 0
DWIDTH 5 0
BBX 4 8 1 -3
BITMAP
30
50
C0
D0
60
40
60
C0
ENDCHAR

STARTCHAR ccaron
ENCODING 232
SWIDTH 456 0
DWIDTH 5 0
BBX 5 8 1 0
BITMAP
28
10
00
30
50
C0
D0
60
ENDCHAR

STARTCHAR eacute
ENCODING 233
SWIDTH 456 0
DWIDTH 5 0
BBX 5 8 1 0
BITMAP
08
10
00
30
50
E0
D0
60
ENDCHAR

STARTCHAR eogonek
ENCODING 234
SWIDTH 456 0
DWIDTH 5 0
BBX 4 7 1 -2
BITMAP
30
50
E0
D0
60
20
30
ENDCHAR

STARTCHAR edieresis
ENCODING 235
SWIDTH 456 0
DWIDTH 5 0
BBX 5 8 1 0
BITMAP
28
28
00
30
50
E0
D0
60
ENDCHAR

STARTCHAR ecaron
ENCODING 236
SWIDTH 456 0
DWIDTH 5 0
BBX 5 8 1 0
BITMAP
28
10
00
30
50
E0
D0
60
ENDCHAR

STARTCHAR iacute
ENCODING 237
SWIDTH 228 0
DWIDTH 2 0
BBX 3 8 0 0
BITMAP
20
40
00
40
40
C0
80
80
ENDCHAR

STARTCHAR icircumflex
ENCODING 238
SWIDTH 228 0
DWIDTH 2 0
BBX 3 8 0 0
BITMAP
40
A0
00
40
40
C0
80
80
ENDCHAR

STARTCHAR dcaron
ENCODING 239
SWIDTH 607 0
DWIDTH 6 0
BBX 7 7 1 0
BITMAP
0A
0A
6C
D0
D0
B0
D0
ENDCHAR

STARTCHAR dcroat
ENCODING 240
SWIDTH 501 0
DWIDTH 5 0
BBX 6 7 1 0
BITMAP
08
1C
68
D0
D0
B0
D0
ENDCHAR

STARTCHAR nacute
ENCODING 241
SWIDTH 501 0
DWIDTH 5 0
BBX 5 8 0 0
BITMAP
08
10
00
58
68
58
98
90
ENDCHAR

STARTCHAR ncaron
ENCODING 242
SWIDTH 501 0
DWIDTH 5 0
BBX 5 8 0 0
BITMAP
28
10
00
58
68
58
98
90
ENDCHAR

STARTCHAR oacute
ENCODING 243
SWIDTH 501 0
DWIDTH 5 0
BBX 4 8 1 0
BITMAP
10
20
00
30
70
B0
A0
C0
ENDCHAR

STARTCHAR ocircumflex
ENCODING 244
SWIDTH 501 0
DWIDTH 5 0
BBX 5 8 1 0
BITMAP
10
28
00
30
70
B0
A0
C0
ENDCHAR

STARTCHAR ohungarumlaut
ENCODING 245
SWIDTH 501 0
DWIDTH 5 0
BBX 5 8 1 0
BITMAP
28
50
00
30
70
B0
A0
C0
ENDCHAR

STARTCHAR odieresis
ENCODING 246
SWIDTH 501 0
DWIDTH 5 0
BBX 5 8 1 0
BITMAP
28
28
00
30
70
B0
A0
C0
ENDCHAR

STARTCHAR divide
ENCODING 247
SWIDTH 479 0
DWIDTH 5 0
BBX 5 5 0 2
BITMAP
20
00
F8
00
20
ENDCHAR

STARTCHAR rcaron
ENCODING 248
SWIDTH 319 0
DWIDTH 3 0
BBX 4 8 1 0
BITMAP
50
20
00
50
60
C0
80
80
ENDCHAR

STARTCHAR uring
ENCODING 249
SWIDTH 501 0
DWIDTH 5 0
BBX 5 9 0 0
BITMAP
10
28
10
00
48
48
D8
B0
D0
ENDCHAR

STARTCHAR uacute
ENCODING 250
SWIDTH 501 0
DWIDTH 5 0
BBX 5 8 0 0
BITMAP
08
10
00
48
48
D8
B0
D0
ENDCHAR

STARTCHAR uhungarumlaut
ENCODING 251
SWIDTH 501 0
DWIDTH 5 0
BBX 6 8 0 0
BITMAP
14
28
00
48
48
D8
B0
D0
ENDCHAR

STARTCHAR udieresis
ENCODING 252
SWIDTH 501 0
DWIDTH 5 0
BBX 5 8 0 0
BITMAP
28
28
00
48
48
D8
B0
D0
ENDCHAR

STARTCHAR yacute
ENCODING 253
SWIDTH 456 0
DWIDTH 5 0
BBX 5 10 0 -2
BITMAP
08
10
00
48
58
50
30
20
60
C0
ENDCHAR

STARTCHAR tcommaaccent
ENCODING 254
SWIDTH 273 0
DWIDTH 3 0
BBX 4 10 0 -3
BITMAP
20
20
70
20
60
40
60
00
40
80
ENDCHAR

STARTCHAR dotaccent
ENCODING 255
SWIDTH 273 0
DWIDTH 3 0
BBX 1 1 1 6
BITMAP
80
ENDCHAR
ENDFONT
